<svg width="1675" height="226" viewBox="0 0 1675 226" fill="none" xmlns="http://www.w3.org/2000/svg">
<g filter="url(#filter0_d)">
<path d="M837.227 105.6C864.793 77.5737 892.492 77.4402 920.326 105.2C948.16 132.96 975.86 132.826 1003.43 104.799C1030.99 76.7726 1058.69 76.6391 1086.52 104.399C1114.36 132.158 1142.06 132.025 1169.62 103.998C1197.19 75.9715 1224.89 75.838 1252.72 103.598C1280.56 131.357 1308.26 131.224 1335.82 103.197C1363.39 75.1704 1391.09 75.0369 1418.92 102.797C1446.75 130.556 1474.45 130.423 1502.02 102.396C1529.58 74.3693 1557.28 74.2358 1585.12 101.995C1612.95 129.755 1640.65 129.622 1668.22 101.595" stroke="#445474" stroke-width="6"/>
<ellipse cx="1635.69" cy="33.0134" rx="32.1937" ry="31.8783" transform="rotate(-0.276172 1635.69 33.0134)" fill="#B3773B"/>
<path d="M837.258 105.601C809.735 133.668 782.036 133.843 754.16 106.124C726.284 78.406 698.584 78.5805 671.061 106.648C643.539 134.716 615.839 134.89 587.963 107.172C560.087 79.4535 532.387 79.6281 504.865 107.696C477.342 135.763 449.642 135.938 421.766 108.219C393.89 80.501 366.191 80.6756 338.668 108.743C311.145 136.811 283.446 136.985 255.57 109.267C227.694 81.5485 199.994 81.7231 172.471 109.791C144.948 137.858 117.249 138.033 89.3729 110.314C61.4968 82.596 33.7974 82.7706 6.27453 110.838" stroke="#445474" stroke-width="6"/>
<ellipse rx="32.1937" ry="31.8783" transform="matrix(-0.999859 0.0167648 -0.0170023 -0.999855 39.6328 185.55)" fill="#C3874D"/>
</g>
<defs>
<filter id="filter0_d" x="0.132507" y="0.980347" width="1674.33" height="224.448" filterUnits="userSpaceOnUse" color-interpolation-filters="sRGB">
<feFlood flood-opacity="0" result="BackgroundImageFix"/>
<feColorMatrix in="SourceAlpha" type="matrix" values="0 0 0 0 0 0 0 0 0 0 0 0 0 0 0 0 0 0 127 0"/>
<feOffset dy="4"/>
<feGaussianBlur stdDeviation="2"/>
<feColorMatrix type="matrix" values="0 0 0 0 0 0 0 0 0 0 0 0 0 0 0 0 0 0 0.25 0"/>
<feBlend mode="normal" in2="BackgroundImageFix" result="effect1_dropShadow"/>
<feBlend mode="normal" in="SourceGraphic" in2="effect1_dropShadow" result="shape"/>
</filter>
</defs>
</svg>
