<svg width="185" height="177" viewBox="0 0 185 177" fill="none" xmlns="http://www.w3.org/2000/svg">
<g filter="url(#filter0_d)">
<path d="M158 132C158 136.859 157.108 141.67 155.374 146.159C153.64 150.648 151.099 154.727 147.895 158.163C144.692 161.599 140.888 164.324 136.703 166.184C132.517 168.043 128.031 169 123.5 169C118.969 169 114.483 168.043 110.297 166.184C106.112 164.324 102.308 161.599 99.1048 158.163C95.9012 154.727 93.3599 150.648 91.6262 146.159C89.8924 141.67 89 136.859 89 132L97.4737 135.5C99.1048 138 99.9747 138.769 101.188 141.911C102.402 145.054 104.181 147.909 106.423 150.314C108.666 152.719 111.328 154.627 114.258 155.928C117.188 157.23 120.329 157.9 123.5 157.9C126.671 157.9 129.812 157.23 132.742 155.928C135.672 154.627 138.334 152.719 140.577 150.314C142.819 147.909 144.598 145.054 145.812 141.911C147.025 138.769 147.895 138.901 147.895 135.5L158 132Z" fill="#B3773B"/>
<path d="M36.096 112.344C47.808 112.344 59.04 101.592 59.04 82.68C59.04 65.976 50.688 55.032 37.632 55.032C32.64 55.032 27.552 57.24 23.52 60.888L24 52.728V34.296H6.912V111H20.256L21.6 105.144H22.08C26.304 109.848 31.296 112.344 36.096 112.344ZM32.064 98.328C29.472 98.328 26.592 97.56 24 95.16V73.56C26.88 70.392 29.472 68.952 32.64 68.952C38.688 68.952 41.472 73.464 41.472 83.064C41.472 94.008 37.248 98.328 32.064 98.328ZM85.6515 112.344C89.4915 112.344 92.2755 111.672 94.0995 110.904L92.0835 98.328C91.1235 98.52 90.7395 98.52 90.1635 98.52C88.8195 98.52 87.1875 97.464 87.1875 93.816V34.296H70.0995V93.24C70.0995 104.664 73.9395 112.344 85.6515 112.344ZM101.975 111H119.062V56.376H101.975V111ZM110.519 48.792C116.183 48.792 120.023 45.336 120.023 39.96C120.023 34.68 116.183 31.224 110.519 31.224C104.759 31.224 101.015 34.68 101.015 39.96C101.015 45.336 104.759 48.792 110.519 48.792ZM129.938 132.216C145.298 132.216 150.098 121.848 150.098 109.752V56.376H132.914V110.328C132.914 116.28 131.474 118.872 127.346 118.872C125.906 118.872 124.562 118.584 123.122 118.104L120.146 130.68C122.45 131.544 125.234 132.216 129.938 132.216ZM141.458 48.792C147.122 48.792 151.058 45.336 151.058 39.96C151.058 34.68 147.122 31.224 141.458 31.224C135.89 31.224 131.954 34.68 131.954 39.96C131.954 45.336 135.89 48.792 141.458 48.792Z" fill="#010504"/>
<circle cx="110" cy="38" r="12" fill="#EFEBDD"/>
<circle cx="143" cy="38" r="12" fill="#EFEBDD"/>
</g>
<defs>
<filter id="filter0_d" x="2.91199" y="26" width="159.088" height="151" filterUnits="userSpaceOnUse" color-interpolation-filters="sRGB">
<feFlood flood-opacity="0" result="BackgroundImageFix"/>
<feColorMatrix in="SourceAlpha" type="matrix" values="0 0 0 0 0 0 0 0 0 0 0 0 0 0 0 0 0 0 127 0"/>
<feOffset dy="4"/>
<feGaussianBlur stdDeviation="2"/>
<feColorMatrix type="matrix" values="0 0 0 0 0 0 0 0 0 0 0 0 0 0 0 0 0 0 0.25 0"/>
<feBlend mode="normal" in2="BackgroundImageFix" result="effect1_dropShadow"/>
<feBlend mode="normal" in="SourceGraphic" in2="effect1_dropShadow" result="shape"/>
</filter>
</defs>
</svg>
