<svg width="872" height="513" viewBox="0 0 872 513" fill="none" xmlns="http://www.w3.org/2000/svg">
<g filter="url(#filter0_d)">
<path d="M471 402C471 415.526 468.349 428.92 463.198 441.416C458.047 453.913 450.496 465.268 440.978 474.832C431.46 484.396 420.161 491.983 407.725 497.16C395.289 502.336 381.96 505 368.5 505C355.04 505 341.711 502.336 329.275 497.16C316.839 491.983 305.54 484.396 296.022 474.832C286.504 465.268 278.953 453.913 273.802 441.416C268.651 428.92 266 415.526 266 402L291.175 411.743C296.022 418.703 298.606 420.844 302.212 429.591C305.817 438.339 311.102 446.287 317.765 452.982C324.428 459.677 332.337 464.988 341.042 468.612C349.748 472.235 359.078 474.1 368.5 474.1C377.922 474.1 387.252 472.235 395.958 468.612C404.663 464.988 412.572 459.677 419.235 452.982C425.898 446.287 431.183 438.339 434.788 429.591C438.394 420.844 440.978 421.212 440.978 411.743L471 402Z" fill="#B3773B"/>
<path d="M108.288 338.032C143.424 338.032 177.12 305.776 177.12 249.04C177.12 198.928 152.064 166.096 112.896 166.096C97.92 166.096 82.656 172.72 70.56 183.664L72 159.184V103.888H20.736V334H60.768L64.8 316.432H66.24C78.912 330.544 93.888 338.032 108.288 338.032ZM96.192 295.984C88.416 295.984 79.776 293.68 72 286.48V221.68C80.64 212.176 88.416 207.856 97.92 207.856C116.064 207.856 124.416 221.392 124.416 250.192C124.416 283.024 111.744 295.984 96.192 295.984ZM256.955 338.032C268.475 338.032 276.827 336.016 282.299 333.712L276.251 295.984C273.371 296.56 272.219 296.56 270.491 296.56C266.459 296.56 261.562 293.392 261.562 282.448V103.888H210.299V280.72C210.299 314.992 221.819 338.032 256.955 338.032ZM305.924 334H357.188V170.128H305.924V334ZM331.556 147.376C348.548 147.376 360.068 137.008 360.068 120.88C360.068 105.04 348.548 94.672 331.556 94.672C314.276 94.672 303.044 105.04 303.044 120.88C303.044 137.008 314.276 147.376 331.556 147.376ZM389.815 397.648C435.895 397.648 450.295 366.544 450.295 330.256V170.128H398.743V331.984C398.743 349.84 394.423 357.616 382.039 357.616C377.719 357.616 373.687 356.752 369.367 355.312L360.439 393.04C367.351 395.632 375.703 397.648 389.815 397.648ZM424.375 147.376C441.367 147.376 453.175 137.008 453.175 120.88C453.175 105.04 441.367 94.672 424.375 94.672C407.671 94.672 395.863 105.04 395.863 120.88C395.863 137.008 407.671 147.376 424.375 147.376Z" fill="#010504"/>
<ellipse cx="331.597" cy="121.216" rx="29.25" ry="29.2165" fill="#EFEBDD"/>
<ellipse cx="424.25" cy="121.216" rx="29.25" ry="29.2165" fill="#EFEBDD"/>
</g>
<defs>
<filter id="filter0_d" x="16.736" y="92" width="458.264" height="421" filterUnits="userSpaceOnUse" color-interpolation-filters="sRGB">
<feFlood flood-opacity="0" result="BackgroundImageFix"/>
<feColorMatrix in="SourceAlpha" type="matrix" values="0 0 0 0 0 0 0 0 0 0 0 0 0 0 0 0 0 0 127 0"/>
<feOffset dy="4"/>
<feGaussianBlur stdDeviation="2"/>
<feColorMatrix type="matrix" values="0 0 0 0 0 0 0 0 0 0 0 0 0 0 0 0 0 0 0.25 0"/>
<feBlend mode="normal" in2="BackgroundImageFix" result="effect1_dropShadow"/>
<feBlend mode="normal" in="SourceGraphic" in2="effect1_dropShadow" result="shape"/>
</filter>
</defs>
</svg>
